# xmcd
#
# Track frame offsets:
# 150
# 15056
# 28312
# 42665
# 54782
# 71338
# 84182
# 95107
# 105938
# 120295
# 131796
# 148361
# 166101
# 179548
# 191879
# 207788
#
# Disc length: 2906 seconds
#
#
# Revision: 0
# Processed by: cddbd v1.5.1PL0 Copyright (c) Steve Scherf et al.
# Submitted via: FreeRIP 2.50 
#
DISCID=d50b5810
DTITLE=Geoff Evans - The River
DYEAR=2000
DGENRE=Oldies
TTITLE0=take me to the river
TTITLE1=the story of my life
TTITLE2=smokey places
TTITLE3=some broken hearts
TTITLE4=picking up pebbles
TTITLE5=wasted days and wasted nights
TTITLE6=one small photograph of you
TTITLE7=wheels
TTITLE8=by the fire of gidgee coal
TTITLE9=in the misty moonlight
TTITLE10=lay down beside me
TTITLE11=seven spanish angels
TTITLE12=a vertical expression of horizantal desire
TTITLE13=kiss an angel good morning
TTITLE14=on the wings of a dove
TTITLE15=white rabbit
EXTD=
EXTT0=
EXTT1=
EXTT2=
EXTT3=
EXTT4=
EXTT5=
EXTT6=
EXTT7=
EXTT8=
EXTT9=
EXTT10=
EXTT11=
EXTT12=
EXTT13=
EXTT14=
EXTT15=
PLAYORDER=
